<mxfile host="app.diagrams.net" agent="Mozilla/5.0 (Windows NT 10.0; Win64; x64) AppleWebKit/537.36 (KHTML, like Gecko) Chrome/134.0.0.0 Safari/537.36 Edg/134.0.0.0" version="26.0.16">
  <diagram name="Страница — 1" id="HKfG68ELqsY0tXgSQz7q">
    <mxGraphModel dx="1149" dy="659" grid="0" gridSize="10" guides="1" tooltips="1" connect="1" arrows="1" fold="1" page="1" pageScale="1" pageWidth="827" pageHeight="1169" math="0" shadow="0">
      <root>
        <mxCell id="0" />
        <mxCell id="1" parent="0" />
        <mxCell id="LTVRMw3epVYywAY1pqAQ-16" style="edgeStyle=orthogonalEdgeStyle;rounded=0;orthogonalLoop=1;jettySize=auto;html=1;entryX=0.5;entryY=0;entryDx=0;entryDy=0;exitX=0;exitY=0.5;exitDx=0;exitDy=0;" parent="1" source="LTVRMw3epVYywAY1pqAQ-14" target="LTVRMw3epVYywAY1pqAQ-15" edge="1">
          <mxGeometry relative="1" as="geometry">
            <Array as="points">
              <mxPoint x="145" y="180" />
            </Array>
          </mxGeometry>
        </mxCell>
        <mxCell id="9YL12ojJ8n8YJTVkPKzf-14" style="edgeStyle=orthogonalEdgeStyle;rounded=0;orthogonalLoop=1;jettySize=auto;html=1;entryX=0.5;entryY=0;entryDx=0;entryDy=0;" edge="1" parent="1" source="LTVRMw3epVYywAY1pqAQ-14" target="9YL12ojJ8n8YJTVkPKzf-12">
          <mxGeometry relative="1" as="geometry">
            <Array as="points">
              <mxPoint x="430" y="180" />
            </Array>
          </mxGeometry>
        </mxCell>
        <mxCell id="LTVRMw3epVYywAY1pqAQ-14" value="choise == 1" style="rhombus;whiteSpace=wrap;html=1;" parent="1" vertex="1">
          <mxGeometry x="210" y="160" width="120" height="40" as="geometry" />
        </mxCell>
        <mxCell id="9YL12ojJ8n8YJTVkPKzf-46" style="edgeStyle=orthogonalEdgeStyle;rounded=0;orthogonalLoop=1;jettySize=auto;html=1;entryX=0.5;entryY=0;entryDx=0;entryDy=0;" edge="1" parent="1" source="LTVRMw3epVYywAY1pqAQ-15" target="9YL12ojJ8n8YJTVkPKzf-45">
          <mxGeometry relative="1" as="geometry">
            <Array as="points">
              <mxPoint x="250" y="220" />
            </Array>
          </mxGeometry>
        </mxCell>
        <mxCell id="9YL12ojJ8n8YJTVkPKzf-51" style="edgeStyle=orthogonalEdgeStyle;rounded=0;orthogonalLoop=1;jettySize=auto;html=1;entryX=0.5;entryY=0;entryDx=0;entryDy=0;" edge="1" parent="1" source="LTVRMw3epVYywAY1pqAQ-15" target="9YL12ojJ8n8YJTVkPKzf-3">
          <mxGeometry relative="1" as="geometry">
            <Array as="points">
              <mxPoint x="40" y="220" />
              <mxPoint x="40" y="510" />
            </Array>
          </mxGeometry>
        </mxCell>
        <mxCell id="LTVRMw3epVYywAY1pqAQ-15" value="choise == 2" style="rhombus;whiteSpace=wrap;html=1;" parent="1" vertex="1">
          <mxGeometry x="80" y="200" width="130" height="40" as="geometry" />
        </mxCell>
        <mxCell id="LTVRMw3epVYywAY1pqAQ-18" style="edgeStyle=orthogonalEdgeStyle;rounded=0;orthogonalLoop=1;jettySize=auto;html=1;entryX=0.5;entryY=0;entryDx=0;entryDy=0;" parent="1" target="LTVRMw3epVYywAY1pqAQ-14" edge="1">
          <mxGeometry relative="1" as="geometry">
            <mxPoint x="270" y="120" as="sourcePoint" />
          </mxGeometry>
        </mxCell>
        <mxCell id="LTVRMw3epVYywAY1pqAQ-21" value="да" style="text;html=1;align=center;verticalAlign=middle;whiteSpace=wrap;rounded=0;" parent="1" vertex="1">
          <mxGeometry x="330" y="150" width="60" height="30" as="geometry" />
        </mxCell>
        <mxCell id="LTVRMw3epVYywAY1pqAQ-22" value="да" style="text;html=1;align=center;verticalAlign=middle;resizable=0;points=[];autosize=1;strokeColor=none;fillColor=none;" parent="1" vertex="1">
          <mxGeometry x="210" y="190" width="40" height="30" as="geometry" />
        </mxCell>
        <mxCell id="LTVRMw3epVYywAY1pqAQ-23" value="нет" style="text;html=1;align=center;verticalAlign=middle;resizable=0;points=[];autosize=1;strokeColor=none;fillColor=none;" parent="1" vertex="1">
          <mxGeometry x="170" y="150" width="40" height="30" as="geometry" />
        </mxCell>
        <mxCell id="9YL12ojJ8n8YJTVkPKzf-7" style="edgeStyle=orthogonalEdgeStyle;rounded=0;orthogonalLoop=1;jettySize=auto;html=1;entryX=0.5;entryY=0;entryDx=0;entryDy=0;" edge="1" parent="1" source="9YL12ojJ8n8YJTVkPKzf-1" target="9YL12ojJ8n8YJTVkPKzf-6">
          <mxGeometry relative="1" as="geometry" />
        </mxCell>
        <mxCell id="9YL12ojJ8n8YJTVkPKzf-1" value="начало" style="rounded=1;whiteSpace=wrap;html=1;arcSize=50;" vertex="1" parent="1">
          <mxGeometry x="230" y="40" width="80" height="40" as="geometry" />
        </mxCell>
        <mxCell id="9YL12ojJ8n8YJTVkPKzf-3" value="конец" style="rounded=1;whiteSpace=wrap;html=1;arcSize=50;" vertex="1" parent="1">
          <mxGeometry x="210" y="530" width="80" height="40" as="geometry" />
        </mxCell>
        <mxCell id="9YL12ojJ8n8YJTVkPKzf-6" value="choise" style="shape=manualInput;whiteSpace=wrap;html=1;size=13;" vertex="1" parent="1">
          <mxGeometry x="210" y="100" width="120" height="40" as="geometry" />
        </mxCell>
        <mxCell id="9YL12ojJ8n8YJTVkPKzf-16" style="edgeStyle=orthogonalEdgeStyle;rounded=0;orthogonalLoop=1;jettySize=auto;html=1;entryX=0.5;entryY=0;entryDx=0;entryDy=0;" edge="1" parent="1" source="9YL12ojJ8n8YJTVkPKzf-12" target="9YL12ojJ8n8YJTVkPKzf-15">
          <mxGeometry relative="1" as="geometry" />
        </mxCell>
        <mxCell id="9YL12ojJ8n8YJTVkPKzf-12" value="&lt;pre style=&quot;font-family: &amp;quot;JetBrains Mono&amp;quot;, monospace;&quot;&gt;&lt;font style=&quot;color: rgb(0, 0, 0);&quot;&gt;c &lt;span&gt;= &lt;/span&gt;Math&lt;span&gt;.&lt;/span&gt;Pow&lt;span&gt;(&lt;/span&gt;&lt;span&gt;0.027&lt;/span&gt;&lt;span&gt;, -&lt;/span&gt;&lt;span&gt;1.0 &lt;/span&gt;&lt;span&gt;/ &lt;/span&gt;&lt;span&gt;3&lt;/span&gt;&lt;span&gt;)&lt;/span&gt;&lt;/font&gt;&lt;/pre&gt;&lt;pre style=&quot;font-family: &amp;quot;JetBrains Mono&amp;quot;, monospace;&quot;&gt;&lt;font style=&quot;color: rgb(0, 0, 0);&quot;&gt;&lt;span&gt;- &lt;/span&gt;Math&lt;span&gt;.&lt;/span&gt;Pow&lt;span&gt;(&lt;/span&gt;&lt;span&gt;1.0 &lt;/span&gt;&lt;span&gt;/ &lt;/span&gt;&lt;span&gt;6&lt;/span&gt;&lt;span&gt;, -&lt;/span&gt;&lt;span&gt;2.2&lt;/span&gt;&lt;span&gt;)&lt;/span&gt;&lt;/font&gt;&lt;/pre&gt;" style="rounded=0;whiteSpace=wrap;html=1;" vertex="1" parent="1">
          <mxGeometry x="330" y="200" width="200" height="40" as="geometry" />
        </mxCell>
        <mxCell id="9YL12ojJ8n8YJTVkPKzf-26" style="edgeStyle=orthogonalEdgeStyle;rounded=0;orthogonalLoop=1;jettySize=auto;html=1;entryX=0.5;entryY=0;entryDx=0;entryDy=0;" edge="1" parent="1" source="9YL12ojJ8n8YJTVkPKzf-15" target="9YL12ojJ8n8YJTVkPKzf-25">
          <mxGeometry relative="1" as="geometry" />
        </mxCell>
        <mxCell id="9YL12ojJ8n8YJTVkPKzf-15" value="&lt;pre style=&quot;font-family: &amp;quot;JetBrains Mono&amp;quot;, monospace;&quot;&gt;&lt;font style=&quot;color: rgb(0, 0, 0);&quot;&gt;&lt;span&gt;k = &lt;/span&gt;&lt;span&gt;3 &lt;/span&gt;&lt;span&gt;* &lt;/span&gt;&lt;span&gt;Math&lt;/span&gt;&lt;span&gt;.&lt;/span&gt;&lt;span&gt;Sin&lt;/span&gt;&lt;span&gt;(&lt;/span&gt;&lt;span&gt;1&lt;/span&gt;&lt;span&gt;)&lt;/span&gt;&lt;/font&gt;&lt;/pre&gt;&lt;pre style=&quot;font-family: &amp;quot;JetBrains Mono&amp;quot;, monospace;&quot;&gt;&lt;font style=&quot;color: rgb(0, 0, 0);&quot;&gt;&lt;span&gt;+ &lt;/span&gt;&lt;span&gt;Math&lt;/span&gt;&lt;span&gt;.&lt;/span&gt;&lt;span&gt;Cos&lt;/span&gt;&lt;span&gt;(&lt;/span&gt;&lt;span&gt;1&lt;/span&gt;&lt;span&gt;);&lt;/span&gt;&lt;/font&gt;&lt;/pre&gt;" style="rounded=0;whiteSpace=wrap;html=1;strokeColor=default;imageAspect=1;" vertex="1" parent="1">
          <mxGeometry x="350" y="260" width="160" height="40" as="geometry" />
        </mxCell>
        <mxCell id="9YL12ojJ8n8YJTVkPKzf-17" value="нет" style="text;html=1;align=center;verticalAlign=middle;resizable=0;points=[];autosize=1;strokeColor=none;fillColor=none;" vertex="1" parent="1">
          <mxGeometry x="40" y="190" width="40" height="30" as="geometry" />
        </mxCell>
        <mxCell id="9YL12ojJ8n8YJTVkPKzf-23" style="edgeStyle=orthogonalEdgeStyle;rounded=0;orthogonalLoop=1;jettySize=auto;html=1;entryX=0.5;entryY=0;entryDx=0;entryDy=0;" edge="1" parent="1" source="9YL12ojJ8n8YJTVkPKzf-18" target="9YL12ojJ8n8YJTVkPKzf-22">
          <mxGeometry relative="1" as="geometry" />
        </mxCell>
        <mxCell id="9YL12ojJ8n8YJTVkPKzf-18" value="&lt;pre style=&quot;font-family: &amp;quot;JetBrains Mono&amp;quot;, monospace;&quot;&gt;&lt;span style=&quot;background-color: light-dark(#ffffff, var(--ge-dark-color, #121212));&quot;&gt;&lt;font style=&quot;color: rgb(0, 0, 0);&quot;&gt;&lt;span&gt;y = &lt;/span&gt;&lt;span&gt;Math&lt;/span&gt;&lt;span&gt;.&lt;/span&gt;&lt;span&gt;Pow&lt;/span&gt;&lt;span&gt;(&lt;/span&gt;&lt;span&gt;Math&lt;/span&gt;&lt;span&gt;.&lt;/span&gt;&lt;span&gt;Sin&lt;/span&gt;&lt;span&gt;(&lt;/span&gt;&lt;/font&gt;&lt;/span&gt;&lt;/pre&gt;&lt;pre style=&quot;font-family: &amp;quot;JetBrains Mono&amp;quot;, monospace;&quot;&gt;&lt;span style=&quot;background-color: light-dark(#ffffff, var(--ge-dark-color, #121212));&quot;&gt;&lt;font style=&quot;color: rgb(0, 0, 0);&quot;&gt;&lt;span&gt;Math&lt;/span&gt;&lt;span&gt;.&lt;/span&gt;&lt;span&gt;Pow&lt;/span&gt;&lt;span&gt;(x * x + a, &lt;/span&gt;&lt;span&gt;2&lt;/span&gt;&lt;span&gt;)), &lt;/span&gt;&lt;span&gt;3&lt;/span&gt;&lt;span&gt;)&lt;/span&gt;&lt;/font&gt;&lt;/span&gt;&lt;/pre&gt;&lt;pre style=&quot;font-family: &amp;quot;JetBrains Mono&amp;quot;, monospace;&quot;&gt;&lt;span style=&quot;background-color: light-dark(#ffffff, var(--ge-dark-color, #121212));&quot;&gt;&lt;font style=&quot;color: rgb(0, 0, 0);&quot;&gt;&lt;span&gt;- &lt;/span&gt;&lt;span&gt;Math&lt;/span&gt;&lt;span&gt;.&lt;/span&gt;&lt;span&gt;Sqrt&lt;/span&gt;&lt;span&gt;(x / b);&lt;/span&gt;&lt;/font&gt;&lt;/span&gt;&lt;/pre&gt;" style="rounded=0;whiteSpace=wrap;html=1;" vertex="1" parent="1">
          <mxGeometry x="155" y="300" width="190" height="70" as="geometry" />
        </mxCell>
        <mxCell id="9YL12ojJ8n8YJTVkPKzf-38" style="edgeStyle=orthogonalEdgeStyle;rounded=0;orthogonalLoop=1;jettySize=auto;html=1;" edge="1" parent="1" source="9YL12ojJ8n8YJTVkPKzf-22" target="9YL12ojJ8n8YJTVkPKzf-37">
          <mxGeometry relative="1" as="geometry" />
        </mxCell>
        <mxCell id="9YL12ojJ8n8YJTVkPKzf-22" value="&lt;pre style=&quot;font-family: &amp;quot;JetBrains Mono&amp;quot;, monospace;&quot;&gt;&lt;font style=&quot;color: rgb(0, 0, 0);&quot;&gt;&lt;span&gt;z = &lt;/span&gt;&lt;span&gt;(&lt;/span&gt;&lt;span&gt;x * x&lt;/span&gt;&lt;span&gt;) &lt;/span&gt;&lt;span&gt;/ a +&lt;/span&gt;&lt;/font&gt;&lt;/pre&gt;&lt;pre style=&quot;font-family: &amp;quot;JetBrains Mono&amp;quot;, monospace;&quot;&gt;&lt;font style=&quot;color: rgb(0, 0, 0);&quot;&gt;&lt;span&gt;Math&lt;/span&gt;&lt;span&gt;.&lt;/span&gt;&lt;span&gt;Pow&lt;/span&gt;&lt;span&gt;(&lt;/span&gt;&lt;span&gt;Math&lt;/span&gt;&lt;span&gt;.&lt;/span&gt;&lt;span&gt;Cos&lt;/span&gt;&lt;span&gt;(x + b), &lt;/span&gt;&lt;span&gt;3&lt;/span&gt;&lt;span&gt;)&lt;/span&gt;&lt;/font&gt;&lt;/pre&gt;" style="rounded=0;whiteSpace=wrap;html=1;" vertex="1" parent="1">
          <mxGeometry x="156.5" y="390" width="187" height="40" as="geometry" />
        </mxCell>
        <mxCell id="9YL12ojJ8n8YJTVkPKzf-25" value="&lt;pre style=&quot;font-family: &amp;quot;JetBrains Mono&amp;quot;, monospace;&quot;&gt;&lt;font style=&quot;color: rgb(0, 0, 0);&quot;&gt;&lt;span&gt;l = &lt;/span&gt;&lt;span&gt;Math&lt;/span&gt;&lt;span&gt;.&lt;/span&gt;&lt;span&gt;Log&lt;/span&gt;&lt;span&gt;(&lt;/span&gt;&lt;/font&gt;&lt;/pre&gt;&lt;pre style=&quot;font-family: &amp;quot;JetBrains Mono&amp;quot;, monospace;&quot;&gt;&lt;font style=&quot;color: rgb(0, 0, 0);&quot;&gt;&lt;span&gt;Math&lt;/span&gt;&lt;span&gt;.&lt;/span&gt;&lt;span&gt;Abs&lt;/span&gt;&lt;span&gt;(cMinus2k));&lt;/span&gt;&lt;/font&gt;&lt;/pre&gt;" style="rounded=0;whiteSpace=wrap;html=1;" vertex="1" parent="1">
          <mxGeometry x="355" y="320" width="150" height="40" as="geometry" />
        </mxCell>
        <mxCell id="9YL12ojJ8n8YJTVkPKzf-49" style="edgeStyle=orthogonalEdgeStyle;rounded=0;orthogonalLoop=1;jettySize=auto;html=1;entryX=0.5;entryY=0;entryDx=0;entryDy=0;" edge="1" parent="1" source="9YL12ojJ8n8YJTVkPKzf-34" target="9YL12ojJ8n8YJTVkPKzf-3">
          <mxGeometry relative="1" as="geometry">
            <Array as="points">
              <mxPoint x="430" y="510" />
            </Array>
          </mxGeometry>
        </mxCell>
        <mxCell id="9YL12ojJ8n8YJTVkPKzf-34" value="c, k, l" style="shape=display;whiteSpace=wrap;html=1;" vertex="1" parent="1">
          <mxGeometry x="390" y="380" width="80" height="40" as="geometry" />
        </mxCell>
        <mxCell id="9YL12ojJ8n8YJTVkPKzf-35" style="edgeStyle=orthogonalEdgeStyle;rounded=0;orthogonalLoop=1;jettySize=auto;html=1;entryX=0;entryY=0;entryDx=40;entryDy=0;entryPerimeter=0;" edge="1" parent="1" source="9YL12ojJ8n8YJTVkPKzf-25" target="9YL12ojJ8n8YJTVkPKzf-34">
          <mxGeometry relative="1" as="geometry" />
        </mxCell>
        <mxCell id="9YL12ojJ8n8YJTVkPKzf-48" style="edgeStyle=orthogonalEdgeStyle;rounded=0;orthogonalLoop=1;jettySize=auto;html=1;entryX=0.5;entryY=0;entryDx=0;entryDy=0;" edge="1" parent="1" source="9YL12ojJ8n8YJTVkPKzf-37" target="9YL12ojJ8n8YJTVkPKzf-3">
          <mxGeometry relative="1" as="geometry" />
        </mxCell>
        <mxCell id="9YL12ojJ8n8YJTVkPKzf-37" value="y, z" style="shape=display;whiteSpace=wrap;html=1;" vertex="1" parent="1">
          <mxGeometry x="210" y="450" width="80" height="40" as="geometry" />
        </mxCell>
        <mxCell id="9YL12ojJ8n8YJTVkPKzf-47" style="edgeStyle=orthogonalEdgeStyle;rounded=0;orthogonalLoop=1;jettySize=auto;html=1;entryX=0.5;entryY=0;entryDx=0;entryDy=0;" edge="1" parent="1" source="9YL12ojJ8n8YJTVkPKzf-45" target="9YL12ojJ8n8YJTVkPKzf-18">
          <mxGeometry relative="1" as="geometry" />
        </mxCell>
        <mxCell id="9YL12ojJ8n8YJTVkPKzf-45" value="x, a, b" style="shape=manualInput;whiteSpace=wrap;html=1;size=13;" vertex="1" parent="1">
          <mxGeometry x="210" y="240" width="80" height="40" as="geometry" />
        </mxCell>
      </root>
    </mxGraphModel>
  </diagram>
</mxfile>
